<?xml version="1.0" encoding="utf-8"?>
<!-- Generator: Adobe Illustrator 27.0.0, SVG Export Plug-In . SVG Version: 6.00 Build 0)  -->
<svg version="1.1" id="Layer_1" xmlns="http://www.w3.org/2000/svg" xmlns:xlink="http://www.w3.org/1999/xlink" x="0px" y="0px"
	 viewBox="0 0 356.3 352.3" style="enable-background:new 0 0 356.3 352.3;" xml:space="preserve">
<style type="text/css">
	.st0{fill:#A10A0B;}
</style>
<path class="st0" d="M170.6,352.3c-40.4-0.5-75.6-14.1-105.3-41.6c-15.5-14.3-27.4-31.2-35.9-50.5c-1.2-2.6-3.1-4.8-4.6-7.2
	c-11-17-18.4-35.4-22.1-55.3c-1.5-7.8-2.3-15.7-2.5-23.7c-0.7-24.6,4-48,14.4-70.3c7.2-15.4,16.8-29.3,28.6-41.5
	C60.8,44,81.6,30.8,105.7,22.8c8.5-2.8,17.1-4.9,25.9-6.1c0.6-0.1,1.2-0.3,1.7-0.5c14.1-7.1,29-11.8,44.6-14.3
	c6.8-1.1,13.6-1.6,20.4-1.8c18-0.5,35.5,2.1,52.6,7.8c21.2,7.1,40.1,18.3,56.4,33.6c19.1,17.8,32.8,39.1,41.1,63.9
	c4.4,13,6.9,26.4,7.6,40.1c1.9,39.1-9.2,74-33.4,104.8c-3.8,4.8-7.8,9.3-12.2,13.5c-0.4,0.4-0.8,0.9-1,1.5
	c-7,14.4-15.9,27.4-27,38.9c-20.3,21.3-44.7,35.7-73.2,43.2C196.6,350.7,183.7,352.3,170.6,352.3L170.6,352.3z M281.7,96.2
	c0.1,0.1,0.2,0.2,0.4,0c0,0-0.1-0.1-0.2-0.2c-0.1-0.1-0.1-0.3-0.3-0.2C281.4,96,281.6,96.1,281.7,96.2L281.7,96.2z M286.5,96
	c-0.1-0.1-0.1-0.3-0.3-0.2c-0.2,0.1,0,0.2,0.1,0.4c0.1,0.1,0.2,0.4,0.4,0.2C286.8,96.3,286.6,96.1,286.5,96z M269.8,266
	c-0.2,0.1-0.4,0.2-0.6,0.4c-10.8,8.7-22.8,15.1-36.1,19.2c-1.1,0.3-2.1,0.6-3.2,1c0.4,0.1,0.8,0.2,1.1,0.1
	c8.3-0.8,16.3-2.6,24.1-5.3c0.3-0.1,0.7-0.3,0.9-0.5c5-4.6,9.7-9.4,14-14.6c0.2-0.1,0.4-0.3,0.2-0.5
	C270.1,265.6,269.9,265.9,269.8,266L269.8,266z M70.1,81.1c0.5-0.4,0.9-0.7,1.4-1.1c24.2-20.1,51.9-31.9,83.2-35.2
	c13.4-1.4,26.7-1,40,1.1c15.3,2.4,29.9,7,43.9,13.9c17.7,8.7,33.1,20.4,46.4,35c0.3,0.4,0.5,0.9,1.2,1c0.1-0.5-0.2-0.8-0.4-1.2
	c-15.6-27-37.3-47.5-65.3-61.3c-20.7-10.2-42.6-15.1-65.7-15.2c-6.3,0-12.6,0.4-18.9,1.1c-1.4,0.2-2.6,0.4-3.9,1.1
	c-18.9,10-35.1,23.3-48.4,40.1c-5.2,6.5-9.8,13.3-13.7,20.6c-0.1,0.2-0.4,0.3-0.2,0.5C69.8,81.5,70,81.2,70.1,81.1L70.1,81.1z
	 M302.7,271.1c-0.3,0.2-0.5,0.4-0.8,0.6c-5.1,4.4-10.5,8.4-16.1,12c-17.5,11.2-36.4,18.7-56.9,22.3c-2,0.4-4.1,0.3-6,1.2
	c-22.9,11.3-47.1,16.6-72.6,16c-15.2-0.4-30-2.9-44.4-7.6C80,307,58,292.5,39.6,272.3c-0.3-0.3-0.5-0.8-1-0.9
	c-0.2,0.5,0.2,0.7,0.3,1c16,27.9,38.6,48.8,67.7,62.6c19.2,9.1,39.5,13.6,60.7,14.2c6.5,0.2,12.9-0.2,19.4-0.9
	c11.6-1.2,22.8-3.7,33.8-7.6c24.5-8.6,45.4-22.6,62.8-41.9c7.6-8.5,14.2-17.7,19.7-27.7c0-0.1,0.1-0.2,0-0.3
	C302.8,270.9,302.7,271,302.7,271.1L302.7,271.1z M314.1,255.6c0.3-0.3,0.6-0.6,0.9-0.9c8.8-9.8,16.2-20.6,22.1-32.3
	c11.7-23.3,17.1-48,16.1-74c-0.5-14.2-3-28-7.4-41.4c-9.3-28-25.4-51.5-48.4-70C265.8,11.4,229.6,0.5,189.2,3.5
	c-12.9,1-25.4,3.8-37.6,8.1c-3.1,1.1-6.3,2.3-9.6,3.8c2.9-0.1,5.6-0.4,8.2-0.4c11.7-0.3,23.3,0.7,34.8,3c30.1,6.2,56,20.1,77.9,41.6
	c13.8,13.6,24.6,29.3,32.5,47c0.3,0.8,0.8,1.5,1.4,2.1c8.1,8.2,14.8,17.6,19.9,28c5.8,11.9,9.3,24.5,10.5,37.7
	c0.8,9.3,0.4,18.5-1.2,27.7c-0.5,2.6-1.2,5.2-1.5,7.9c-0.7,7.4-1.7,14.7-3.3,21.9c-1.8,8-4.3,15.9-7.2,23.5c-0.1,0.1-0.2,0.3,0,0.4
	C313.9,255.8,314,255.7,314.1,255.6L314.1,255.6z M117.2,182.1c0.1,6.3,0.3,11,1,15.7c1.6,11.7,5.1,22.9,10.6,33.3
	c8.7,16.8,21.1,30.2,37.1,40.3c0.6,0.4,1.1,0.5,1.7,0.4c3-0.4,5.9-0.9,8.8-1.6c20.8-4.7,38.6-14.6,53.1-30.2
	c21.8-23.4,30.8-51.3,27.5-83c-1.3-12.4-5-24.2-10.8-35.3c-8.8-16.8-21.2-30.3-37.2-40.4c-0.5-0.3-0.9-0.4-1.4-0.4
	c-2.4,0.4-4.8,0.7-7.2,1.2c-20.4,4.2-38.2,13.6-52.9,28.5C127.6,130.8,117.7,155.3,117.2,182.1L117.2,182.1z M201.4,77.1
	c-0.3-0.2-0.3-0.3-0.4-0.3c-0.2-0.1-0.4-0.2-0.6-0.3c-21.2-10.4-43.5-13.4-66.7-8.7c-20.3,4-37.8,13.5-52.4,28
	c-14.5,14.4-23.9,31.6-28.3,51.5c-1.1,4.9-2.1,9.9-1.9,15.1c0.2,4.8,0.7,9.6,1.4,14.3c2.5,16.2,7.3,31.6,14.8,46.1
	c3.1,5.9,6,11.9,10.9,16.7c1.7,1.7,3.4,3.5,5.2,5.2c15.4,14.3,33.4,23.2,54.2,26.7c1.4,0.2,2.9,0.6,4.6,0.5
	c-18.7-13-32.1-29.9-40-51.1c-7.8-21.1-8.8-42.7-3.1-64.5c5.3-20.2,15.9-37.5,31.4-51.5C150.6,86.7,174.2,77.7,201.4,77.1
	L201.4,77.1z M214.1,80.9c24.3,17.3,39.8,40.2,44.9,69.4c5.2,29.2-0.7,56.2-17.9,80.4c-17.1,24.1-40.7,38.5-69.8,43.7
	c0.2,0.5,0.6,0.6,1,0.7c9.8,5.2,20.1,8.7,31,10.6c3.1,0.5,6.1,1.2,9.3,1c4.5-0.4,8.9-1.2,13.3-2.2c19.9-4.8,36.9-14.6,51.1-29.3
	c2.6-2.7,5.2-5.4,7.2-8.7c4.4-7.3,8.1-14.9,11.1-22.9c4.8-12.3,7.8-25.1,9.3-38.2c0.4-3.3,0.8-6.7,0.6-10c-0.5-8.4-2.1-16.6-5-24.6
	C287.7,116,263.6,93.5,228,83.5C223.5,82.2,218.9,81.4,214.1,80.9L214.1,80.9z M58.6,96.9c-0.1,0-0.2-0.1-0.2,0
	c-0.9,0.9-1.7,1.9-2.6,2.8c-27.1,32.2-39,69.4-35.9,111.4c1,13.6,4,26.7,8.8,39.5c1,2.8,1.8,5.6,3.6,8c5.2,7,10.9,13.6,17.2,19.6
	c11.8,11.3,25,20.5,39.8,27.5c26.5,12.5,54.4,16.9,83.5,13.4c12.9-1.5,25.5-4.8,37.6-9.6c1.2-0.5,2.3-1,3.5-1.5
	c-0.3-0.2-0.6-0.2-0.9-0.2c-12.5,1-24.9,0.3-37.2-1.8c-15.4-2.6-30.1-7.5-44.1-14.7c-20.5-10.5-37.8-25-51.9-43.2
	c-3.1-4-5.8-8.4-8.9-12.5c-4.9-6.4-9.3-13.1-12.8-20.4c-6-12.6-9.4-25.8-10.3-39.7c-0.3-5.1,0-10.2,0-15.3c0-7.4,0-14.9,0.8-22.3
	c1.5-13.8,4.7-27.1,9.7-40C58.5,97.6,58.8,97.3,58.6,96.9L58.6,96.9z M123.5,21.4C76.3,30.3,27.1,66.8,9.4,125.6
	c-4,13.2-6.1,26.7-6.3,40.4c-0.3,13.7,1.2,27.2,4.7,40.6c3.1,12.2,12.7,35.4,15.6,37.7c-0.1-0.4-0.2-0.6-0.2-0.9
	c-4.9-16-7.1-32.4-6.7-49.1c0.2-9.7,1.3-19.3,3.4-28.7c6.1-27.7,18.8-52,38.2-72.7c2.8-2.9,5.3-5.9,7.2-9.6
	c12.5-24.2,30.3-43.6,53.1-58.5C120,23.6,121.7,22.5,123.5,21.4L123.5,21.4z M281.5,95.9c-0.2-0.7-0.2-0.7-0.7-1.2
	c-4.4-4.6-9-9.1-14-13.1c-27.1-22.1-58.2-33.6-93.2-34.6c-10.2-0.3-20.4,0.6-30.5,2.5c-28.5,5.3-53.5,17.9-74.9,37.4
	c-2,1.8-3.4,3.8-4.5,6.2c-5.9,13.5-9.8,27.5-11.7,42.2c-0.2,1.3-0.3,2.6-0.5,4.2c0.5-0.4,0.5-0.8,0.6-1.1
	c5.5-18.1,15.1-33.7,29-46.6c19.7-18.3,43-28,69.9-28.9c19.7-0.7,38.2,3.9,55.3,13.5c2,1.1,4,1.4,6.2,1.2c8.7-0.7,17.4-0.3,26,1.1
	c15.2,2.6,29.2,8.2,42,16.8C280.9,95.6,281.1,95.9,281.5,95.9L281.5,95.9z M161.6,272.4c-23.4-16.3-38.7-38-44.8-65.6
	c-6.1-27.7-1.8-53.9,12.9-78.2c14.7-24.2,36.1-39.9,63.4-47.8c-0.7,0-1.3-0.1-1.8,0c-3.7,0.4-7.3,0.9-10.9,1.7
	c-22.6,5-41.9,16.1-56.8,33.8c-22.7,26.9-30.1,57.9-22,92.1c6.4,27.1,22.2,48,45.6,63.1c1.1,0.7,2.2,1.1,3.6,1.1
	C154.4,272.6,157.9,272.7,161.6,272.4L161.6,272.4z M248.9,286.7c-0.4-0.3-0.7,0-1.1,0c-2.6,0.7-5.2,1.2-7.8,1.7
	c-7.4,1.3-14.8,1.9-22.3,1.7c-2.6-0.1-5.2-0.5-7.9-0.2c-8.9,0.7-17.8,0.2-26.6-1.4c-12.2-2.2-23.8-6.4-34.5-12.6
	c-0.5-0.3-1-0.4-1.6-0.5c-4.6-0.3-9.1-0.9-13.5-1.8c-16.6-3.3-31.5-10.1-44.9-20.5c-0.3-0.2-0.6-0.7-1.2-0.4
	c0.1,0.2,0.2,0.3,0.4,0.4c5.1,5.9,10.6,11.3,16.5,16.3c28.2,23.5,60.7,35.4,97.4,35.8c5.6,0.1,11.1-0.2,16.6-0.9
	c1.8-0.2,3.7-0.1,5.4-1c8.6-4.5,16.7-9.7,24.3-15.7C248.4,287.4,248.8,287.2,248.9,286.7L248.9,286.7z M264.4,277.4
	c0.2,0,0.3,0.1,0.4,0.1c1.2-0.6,2.5-1.1,3.7-1.8c24.5-13,41.3-32.6,50.6-58.7c1-2.9,2.2-5.9,2.5-9c0.5-5.3,0.5-10.7,0.2-16
	c-0.6-14.8-3.3-29.1-8.1-43.1c-3-8.7-6.8-17-11.3-25c-0.2-0.3-0.2-0.9-0.9-0.9c0.1,0.4,0.3,0.7,0.4,0.9c4,13.2,6.2,26.8,6.7,40.6
	c0.1,3.8-0.1,7.5,0,11.3c0.2,5.5,0.3,10.9-0.1,16.4c-1.4,17-6.5,32.7-15.3,47.2c-2.8,4.6-6.1,8.7-9,13.1
	c-5.4,8.4-11.5,16.1-18.4,23.3C265.1,276.2,264.6,276.6,264.4,277.4L264.4,277.4z M232.5,302c0.9,0.1,1.6-0.1,2.2-0.3
	c27.1-6.1,50.8-18.7,71.1-37.6c0.8-0.7,1.6-1.4,2-2.5c4.6-9.9,8.1-20.3,10.5-31c0.4-1.8,0.9-3.7,0.9-5.6c-0.2,0.2-0.3,0.5-0.5,0.8
	c-5,11.4-11.8,21.7-20.3,30.8c-11.4,12-24.8,20.9-40.2,26.7c-0.6,0.2-1.1,0.5-1.6,1c-3.2,2.9-6.6,5.6-10,8.2
	C242.1,296,237.5,299.1,232.5,302L232.5,302z M229.9,80.6c37.7,11.6,62.6,36.1,74.8,73.6c-0.2-1.5-0.3-2.9-0.5-4.2
	c-1.6-12.7-4.8-24.9-9.5-36.9c-0.9-2.4-2.3-4.3-4.2-6.1c-14.8-13.3-32-21.8-51.6-25.3C236,81.2,233.1,80.8,229.9,80.6z M193.1,286.8
	c-0.4-0.5-0.9-0.5-1.2-0.6c-8.3-2.3-16.2-5.6-23.6-9.9c-1.6-1-3.2-1.4-5.1-1.1c-1.1,0.2-2.1,0.2-3.2,0.2c-1.7,0.1-3.3,0.2-5.4,0.2
	C166.9,282,179.6,285.6,193.1,286.8L193.1,286.8z M324.4,185.3c0.2-9.9-1-19.6-3.6-29.1c-2.6-9.4-6.4-18.4-11.8-26.6
	C317.5,147.3,322.6,165.8,324.4,185.3z M58.6,96.6c0.1,0.1,0.1,0.1,0.2,0.2c0-0.1,0.1-0.2,0.2-0.3c0,0-0.1-0.1-0.1-0.2
	C58.7,96.5,58.7,96.6,58.6,96.6z M38.5,271.2c-0.1,0-0.2-0.1-0.3-0.1c0,0-0.1,0.1-0.1,0.1c0.1,0,0.2,0.1,0.3,0.2
	C38.5,271.4,38.5,271.3,38.5,271.2z M249.2,286.5c-0.1,0-0.2,0.1-0.2,0.1c0,0.1,0,0.2,0.2,0.1c0.1,0,0.1-0.1,0.2-0.1
	C249.3,286.5,249.2,286.5,249.2,286.5L249.2,286.5z M264.1,277.4c0,0,0.1,0.1,0.1,0.1c0,0,0.1-0.1,0.1-0.1
	C264.3,277.5,264.2,277.4,264.1,277.4C264.2,277.4,264.2,277.4,264.1,277.4z"/>
</svg>
